{"accessors" : [{"bufferView" : 0, "byteOffset" : 0, "componentType" : 5123, "count" : 6075, "type" : "SCALAR", "max" : [6074], "min" : [0]}, {"bufferView" : 1, "byteOffset" : 0, "componentType" : 5126, "count" : 6075, "type" : "VEC3", "max" : [8.980205535888672, 7.934662818908691, 0.8747577667236328], "min" : [-9.463923454284668, -8.057624816894531, -0.0030012354254722595], "name" : "POSITION"}, {"bufferView" : 1, "byteOffset" : 12, "componentType" : 5126, "count" : 6075, "type" : "VEC3", "max" : [1.0000044107437134, 1.0000044107437134, 1.0000044107437134], "min" : [-1.0000044107437134, -1.0000044107437134, -1.0000044107437134], "name" : "NORMAL"}, {"bufferView" : 1, "byteOffset" : 24, "componentType" : 5126, "count" : 6075, "type" : "VEC2", "max" : [1, -0], "min" : [0, -1], "name" : "TEXCOORD_0"}], "asset" : {"generator" : "Aspose.3D 21.10", "version" : "2.0"}, "buffers" : [{"uri" : "data:application/octet-stream;base64,", "byteLength" : 206560}], "bufferViews" : [{"buffer" : 0, "byteOffset" : 0, "byteLength" : 12152, "target" : 34963}, {"buffer" : 0, "byteOffset" : 12156, "byteLength" : 194400, "byteStride" : 32, "target" : 34962}], "materials" : [{"name" : "", "pbrMetallicRoughness" : {"baseColorFactor" : [0.04970654845237732, 0.06480329483747482, 0.6038273572921753, 1], "metallicFactor" : 0, "roughnessFactor" : 0}, "emissiveFactor" : [0.04970654845237732, 0.06480329483747482, 0.6038273572921753], "alphaMode" : "OPAQUE", "doubleSided" : false}], "meshes" : [{"primitives" : [{"attributes" : {"POSITION" : 1, "NORMAL" : 2, "TEXCOORD_0" : 3}, "indices" : 0, "material" : 0, "mode" : 4}], "name" : "Geometry"}], "nodes" : [{"matrix" : [2.7637271889034803E-07, 1.211213326230087E-23, -3.6606676578521626, 0, 1.6001289139168748E-07, 3.6606676578521693, 1.208063723432958E-14, 0, 3.6606676578521595, -1.600128913916879E-07, 2.7637271889034803E-07, 0, 0, 0, 0, 1], "mesh" : 0, "name" : "Model"}], "scene" : 0, "scenes" : [{"nodes" : [0]}]}